<?xml version="1.0" standalone="no"?>
<!DOCTYPE svg PUBLIC "-//W3C//DTD SVG 20010904//EN"
 "http://www.w3.org/TR/2001/REC-SVG-20010904/DTD/svg10.dtd">
<svg version="1.0" xmlns="http://www.w3.org/2000/svg"
 width="320.000000pt" height="320.000000pt" viewBox="0 0 320.000000 320.000000"
 preserveAspectRatio="xMidYMid meet">
<metadata>
Created by potrace 1.14, written by Peter Selinger 2001-2017
</metadata>
<g transform="translate(0.000000,320.000000) scale(0.100000,-0.100000)"
fill="#000000" stroke="none">
<path d="M361 3184 c-52 -14 -144 -57 -167 -80 -7 -6 -25 -22 -41 -35 -42 -35
-97 -119 -124 -187 l-23 -57 -2 -1211 -1 -1210 23 -68 c23 -69 76 -155 123
-200 41 -39 138 -94 200 -112 51 -15 162 -17 1221 -18 641 -1 1192 2 1225 6
133 17 286 126 348 249 55 108 53 61 52 1359 l-2 1205 -22 56 c-61 157 -202
279 -356 308 -29 5 -541 9 -1225 9 -982 0 -1184 -2 -1229 -14z"/>
</g>
</svg>
